<?xml version="1.0" encoding="utf-8"?>
<svg fill="#FFFFFF" viewBox="0 0 36 36" version="1.1" preserveAspectRatio="xMidYMid meet" xmlns="http://www.w3.org/2000/svg" xmlns:xlink="http://www.w3.org/1999/xlink">
    <title>import-line</title>
    <path d="M6,13.61h7.61V6H24v8.38h2V6a2,2,0,0,0-2-2H10.87L4,10.87V30a2,2,0,0,0,2,2H24a2,2,0,0,0,2-2H6Zm0-1.92L11.69,6H12v6H6Z" class="clr-i-outline clr-i-outline-path-1"></path>
    <path d="M19.68,16.35a1,1,0,0,1,1.41,1.41L17.84,21H30a1,1,0,0,1,0,2H17.81l3.28,3.28a1,1,0,1,1-1.41,1.41L14,22Z" class="clr-i-outline clr-i-outline-path-2"></path>
    <rect x="0" y="0" width="36" height="36" fill-opacity="0"/>
</svg>
